name Walk4.mot
datacolumns 19
datarows 30
range 1.65000000 1.67900000
endheader

                time	   L_ground_force_vx	   L_ground_force_vy	   L_ground_force_vz	   L_ground_force_px	   L_ground_force_py	   L_ground_force_pz	   R_ground_force_vx	   R_ground_force_vy	   R_ground_force_vz	   R_ground_force_px	   R_ground_force_py	   R_ground_force_pz	   L_ground_torque_x	   L_ground_torque_y	   L_ground_torque_z	   R_ground_torque_x	   R_ground_torque_y	   R_ground_torque_z	
          1.65000000	          6.83615934	         47.90747922	         -0.23067312	          0.00699360	          0.00000000	          0.00006283	         -0.00000000	          0.00000000	          0.00000000	          0.00000000	          0.00000000	          0.00000000	          0.00000000	         -0.14132699	          0.00000000	          0.00000000	         -0.00000000	          0.00000000	
          1.65100000	          6.97895576	         52.36314451	         -0.28261316	         -0.01709790	          0.00000000	         -0.00270722	         -0.00000000	          0.00000000	          0.00000000	          0.00000000	          0.00000000	          0.00000000	          0.00000000	         -0.15077648	          0.00000000	          0.00000000	         -0.00000000	          0.00000000	
          1.65200000	          7.09252648	         56.98138724	         -0.34065221	         -0.04111225	          0.00000000	         -0.00546830	         -0.00000000	          0.00000000	          0.00000000	          0.00000000	          0.00000000	          0.00000000	          0.00000000	         -0.16020536	          0.00000000	          0.00000000	         -0.00000000	          0.00000000	
          1.65300000	          7.17397780	         61.75899171	         -0.40506536	         -0.06499091	          0.00000000	         -0.00821362	         -0.00000000	          0.00000000	          0.00000000	          0.00000000	          0.00000000	          0.00000000	          0.00000000	         -0.16957867	          0.00000000	          0.00000000	         -0.00000000	          0.00000000	
          1.65400000	          7.22030556	         66.69185175	         -0.47612235	         -0.08867469	          0.00000000	         -0.01093628	         -0.00000000	          0.00000000	          0.00000000	          0.00000000	          0.00000000	          0.00000000	          0.00000000	         -0.17885893	          0.00000000	          0.00000000	         -0.00000000	          0.00000000	
          1.65500000	          7.22839395	         71.77489617	         -0.55408656	         -0.11210342	          0.00000000	         -0.01362927	         -0.00000000	          0.00000000	          0.00000000	          0.00000000	          0.00000000	          0.00000000	          0.00000000	         -0.18800601	          0.00000000	          0.00000000	         -0.00000000	          0.00000000	
          1.65600000	          7.19501821	         77.00202072	         -0.63921325	         -0.13521607	          0.00000000	         -0.01628548	         -0.00000000	          0.00000000	          0.00000000	          0.00000000	          0.00000000	          0.00000000	          0.00000000	         -0.19697708	          0.00000000	          0.00000000	         -0.00000000	          0.00000000	
          1.65700000	          7.11686128	         82.36605340	         -0.73174544	         -0.15795275	          0.00000000	         -0.01889788	         -0.00000000	          0.00000000	          0.00000000	          0.00000000	          0.00000000	          0.00000000	          0.00000000	         -0.20572676	          0.00000000	          0.00000000	         -0.00000000	          0.00000000	
          1.65800000	          6.99054956	         87.85877310	         -0.83190668	         -0.18025770	          0.00000000	         -0.02145993	         -0.00000000	          0.00000000	          0.00000000	          0.00000000	          0.00000000	          0.00000000	          0.00000000	         -0.21420772	          0.00000000	          0.00000000	         -0.00000000	          0.00000000	
          1.65900000	          6.81270130	         93.47097425	         -0.93989198	         -0.20208116	          0.00000000	         -0.02396575	         -0.00000000	          0.00000000	          0.00000000	          0.00000000	          0.00000000	          0.00000000	          0.00000000	         -0.22237149	          0.00000000	          0.00000000	         -0.00000000	          0.00000000	
          1.66000000	          6.57998017	         99.19256704	         -1.05585829	         -0.22337961	          0.00000000	         -0.02641017	         -0.00000000	          0.00000000	          0.00000000	          0.00000000	          0.00000000	          0.00000000	          0.00000000	         -0.23016925	          0.00000000	          0.00000000	         -0.00000000	          0.00000000	
          1.66100000	          6.28915243	        105.01271651	         -1.17991396	         -0.24411535	          0.00000000	         -0.02878869	         -0.00000000	          0.00000000	          0.00000000	          0.00000000	          0.00000000	          0.00000000	          0.00000000	         -0.23755261	          0.00000000	          0.00000000	         -0.00000000	          0.00000000	
          1.66200000	          5.93714772	        110.92002502	         -1.31210664	         -0.26425608	          0.00000000	         -0.03109744	         -0.00000000	          0.00000000	          0.00000000	          0.00000000	          0.00000000	          0.00000000	          0.00000000	         -0.24447428	          0.00000000	          0.00000000	         -0.00000000	          0.00000000	
          1.66300000	          5.52112319	        116.90275709	         -1.45240890	         -0.28377462	          0.00000000	         -0.03333318	         -0.00000000	          0.00000000	          0.00000000	          0.00000000	          0.00000000	          0.00000000	          0.00000000	         -0.25088850	          0.00000000	          0.00000000	          0.00000000	          0.00000000	
          1.66400000	          5.03853095	        122.94909757	         -1.60070164	         -0.30264844	          0.00000000	         -0.03549320	         -0.00000000	          0.00000000	          0.00000000	          0.00000000	          0.00000000	          0.00000000	          0.00000000	         -0.25675138	          0.00000000	          0.00000000	          0.00000000	          0.00000000	
          1.66500000	          4.48718725	        129.04742388	         -1.75675625	         -0.32085941	          0.00000000	         -0.03757537	         -0.00000000	          0.00000000	          0.00000000	          0.00000000	          0.00000000	          0.00000000	          0.00000000	         -0.26202124	          0.00000000	          0.00000000	          0.00000000	          0.00000000	
          1.66600000	          3.86534031	        135.18656555	         -1.92021759	         -0.33839346	          0.00000000	         -0.03957804	         -0.00000000	          0.00000000	          0.00000000	          0.00000000	          0.00000000	          0.00000000	          0.00000000	         -0.26665884	          0.00000000	          0.00000000	          0.00000000	          0.00000000	
          1.66700000	          3.17173203	        141.35602284	         -2.09059028	         -0.35524027	          0.00000000	         -0.04150003	         -0.00000000	          0.00000000	          0.00000000	          0.00000000	          0.00000000	         -0.00000000	          0.00000000	         -0.27062769	          0.00000000	          0.00000000	          0.00000000	          0.00000000	
          1.66800000	          2.40564866	        147.54612287	         -2.26723076	         -0.37139299	          0.00000000	         -0.04334062	         -0.00000000	          0.00000000	          0.00000000	          0.00000000	          0.00000000	         -0.00000000	          0.00000000	         -0.27389435	          0.00000000	          0.00000000	          0.00000000	          0.00000000	
          1.66900000	          1.56695662	        153.74810307	         -2.44934645	         -0.38684800	          0.00000000	         -0.04509948	         -0.00000000	          0.00000000	         -0.00000000	          0.00000000	          0.00000000	         -0.00000000	          0.00000000	         -0.27642876	          0.00000000	          0.00000000	          0.00000000	          0.00000000	
          1.67000000	          0.65612145	        159.95412510	         -2.63600201	         -0.40160461	          0.00000000	         -0.04677669	         -0.00000000	          0.00000000	         -0.00000000	          0.00000000	          0.00000000	         -0.00000000	          0.00000000	         -0.27820464	          0.00000000	          0.00000000	          0.00000000	          0.00000000	
          1.67100000	         -0.32578971	        166.15723137	         -2.82613172	         -0.41566487	          0.00000000	         -0.04837264	         -0.00000000	          0.00000000	         -0.00000000	          0.00000000	          0.00000000	         -0.00000000	          0.00000000	         -0.27920006	          0.00000000	          0.00000000	          0.00000000	          0.00000000	
          1.67200000	         -1.37711995	        172.35126144	         -3.01855643	         -0.42903329	          0.00000000	         -0.04988806	         -0.00000000	          0.00000000	         -0.00000000	          0.00000000	          0.00000000	         -0.00000000	          0.00000000	         -0.27939802	          0.00000000	          0.00000000	          0.00000000	          0.00000000	
          1.67300000	         -2.49564521	        178.53074496	         -3.21200315	         -0.44171666	          0.00000000	         -0.05132396	         -0.00000000	          0.00000000	         -0.00000000	         -0.00000000	          0.00000000	         -0.00000000	          0.00000000	         -0.27878692	          0.00000000	          0.00000000	          0.00000000	          0.00000000	
          1.67400000	         -3.67860394	        184.69078531	         -3.40512585	         -0.45372379	          0.00000000	         -0.05268161	         -0.00000000	         -0.00000000	         -0.00000000	         -0.00000000	          0.00000000	         -0.00000000	          0.00000000	         -0.27736088	          0.00000000	          0.00000000	          0.00000000	          0.00000000	
          1.67500000	         -4.92273068	        190.82694404	         -3.59652620	         -0.46506535	          0.00000000	         -0.05396249	         -0.00000000	         -0.00000000	         -0.00000000	         -0.00000000	          0.00000000	         -0.00000000	          0.00000000	         -0.27511972	          0.00000000	          0.00000000	          0.00000000	          0.00000000	
          1.67600000	         -6.22429092	        196.93513306	         -3.78477345	         -0.47575362	          0.00000000	         -0.05516828	         -0.00000000	         -0.00000000	         -0.00000000	         -0.00000000	          0.00000000	         -0.00000000	          0.00000000	         -0.27206891	          0.00000000	          0.00000000	          0.00000000	          0.00000000	
          1.67700000	         -7.57911575	        203.01151903	         -3.96842303	         -0.48580236	          0.00000000	         -0.05630086	         -0.00000000	         -0.00000000	         -0.00000000	         -0.00000000	          0.00000000	         -0.00000000	          0.00000000	         -0.26821947	          0.00000000	          0.00000000	          0.00000000	          0.00000000	
          1.67800000	         -8.98263553	        209.05244273	         -4.14603378	         -0.49522660	          0.00000000	         -0.05736228	         -0.00000000	         -0.00000000	         -0.00000000	         -0.00000000	          0.00000000	         -0.00000000	          0.00000000	         -0.26358796	          0.00000000	          0.00000000	          0.00000000	          0.00000000	
          1.67900000	        -10.42991222	        215.05435535	         -4.31618376	         -0.50404247	          0.00000000	         -0.05835469	         -0.00000000	         -0.00000000	         -0.00000000	         -0.00000000	          0.00000000	         -0.00000000	          0.00000000	         -0.25819655	          0.00000000	          0.00000000	          0.00000000	          0.00000000	
